<svg xmlns="http://www.w3.org/2000/svg" viewBox="0 0 64 64"><defs><style>.a{fill:#000842;}.b{fill:#fff;}.c{fill:#f6ae2d;}</style></defs><rect class="a" width="64" height="64"/><path class="b" d="M28.4,13.21h0c10.11,0,18.3,6.63,18.3,14.8S38.51,42.82,28.4,42.82a22.25,22.25,0,0,1-2.85-.18c-3.93,3.92-8.47,4.62-13,4.72v-1C15,45.21,17,43,17,40.54a7,7,0,0,0-.08-1c-4.14-2.71-6.78-6.86-6.78-11.51,0-8.17,8.19-14.8,18.29-14.8Z"/><path class="c" d="M51.58,51.42v.82c-3.93-.09-7.54-.69-10.95-4a20,20,0,0,1-2.47.15,18.47,18.47,0,0,1-9.67-2.63,23.44,23.44,0,0,0,14.67-5,17.93,17.93,0,0,0,4.67-5.62A15.22,15.22,0,0,0,49.6,28c0-.39,0-.79-.05-1.18A11.46,11.46,0,0,1,54,35.66c0,4-2.29,7.53-5.88,9.86a6.4,6.4,0,0,0-.07.88A5.71,5.71,0,0,0,51.58,51.42Z"/></svg>