<svg xmlns="http://www.w3.org/2000/svg" viewBox="0 0 64 64"><defs><style>.a{fill:#000842;}.b{fill:#fff;}</style></defs><path class="a" d="M0,0H64V64H0Z"/><path class="b" d="M29,16.77h0c8.42,0,15.24,5.52,15.24,12.33S37.4,41.44,29,41.44a20.51,20.51,0,0,1-2.37-.15c-3.28,3.26-7.06,3.84-10.83,3.93v-.8c2-1,3.68-2.81,3.68-4.88a4.8,4.8,0,0,0-.07-.85,11.63,11.63,0,0,1-5.65-9.59c0-6.81,6.83-12.33,15.24-12.33ZM45.37,44.41a4.76,4.76,0,0,0,2.92,4.19v.68c-3.28-.07-6.28-.57-9.12-3.37a16,16,0,0,1-10.11-2.06A19.57,19.57,0,0,0,41.28,39.7,14.86,14.86,0,0,0,45.16,35a12.64,12.64,0,0,0,1.48-5.92c0-.33,0-.66,0-1a9.6,9.6,0,0,1,3.72,7.36,9.9,9.9,0,0,1-4.9,8.21,6,6,0,0,0-.05.73Z"/></svg>