<svg width="576" height="512" xmlns="http://www.w3.org/2000/svg">
 <title/>

 <g>
  <title>background</title>
  <rect fill="#086b92" id="canvas_background" height="514" width="578" y="-1" x="-1"/>
 </g>
 <g>
  <title>Layer 1</title>
  <g id="icomoon-ignore"/>
  <path fill="#ffffff" id="svg_1" d="m258,96l0,0c82.842,0 150,54.347 150,121.39s-67.158,121.39 -150,121.39c-7.956,0 -15.764,-0.507 -23.386,-1.473c-32.221,32.093 -69.428,37.847 -106.614,38.692l0,-7.854c20.078,-9.798 36.25,-27.646 36.25,-48.043c0,-2.846 -0.222,-5.64 -0.634,-8.373c-33.924,-22.254 -55.616,-56.247 -55.616,-94.341c0,-67.043 67.158,-121.39 150,-121.39l0,0.002zm161.25,272.089c0,17.483 11.348,32.781 28.75,41.178l0,6.733c-32.228,-0.724 -61.808,-5.658 -89.733,-33.164c-6.607,0.827 -13.373,1.262 -20.267,1.262c-29.834,0 -57.315,-8.049 -79.254,-21.575c45.211,-0.158 87.893,-14.642 120.261,-40.835c16.315,-13.203 29.186,-28.696 38.254,-46.047c9.614,-18.396 14.489,-37.994 14.489,-58.252c0,-3.265 -0.141,-6.512 -0.392,-9.74c22.678,18.729 36.642,44.257 36.642,72.398c0,32.653 -18.799,61.788 -48.2,80.863c-0.358,2.342 -0.55,4.738 -0.55,7.178l0,0.001z"/>
 </g>
</svg>