<svg xmlns="http://www.w3.org/2000/svg" viewBox="0 0 32 32"><defs><style>.a{fill:#fff;}.b,.d{fill:#000842;}.c{fill:#f6ae2d;}.d{stroke:#000842;stroke-miterlimit:10;}</style></defs><rect class="a" width="32" height="32"/><path class="b" d="M25.92,7H6.08A3.83,3.83,0,0,0,2,10.5v10A3.83,3.83,0,0,0,6.08,24H7.47L5.56,27.28a.45.45,0,0,0,.12.58.65.65,0,0,0,.4.14.59.59,0,0,0,.29-.07l8-3.93H25.92A3.83,3.83,0,0,0,30,20.5v-10A3.83,3.83,0,0,0,25.92,7Z"/><path class="c" d="M28.83,10.5v10A2.73,2.73,0,0,1,25.92,23H14.25a.59.59,0,0,0-.29.07L7.47,26.25l1.47-2.53a.42.42,0,0,0,0-.48A.59.59,0,0,0,8.42,23H6.08a2.73,2.73,0,0,1-2.91-2.5v-10A2.73,2.73,0,0,1,6.08,8H25.92A2.73,2.73,0,0,1,28.83,10.5Z"/><line class="d" x1="7" y1="12.5" x2="25" y2="12.5"/><line class="d" x1="7" y1="15.5" x2="25" y2="15.5"/><line class="d" x1="7" y1="18.5" x2="25" y2="18.5"/></svg>